<svg xmlns="http://www.w3.org/2000/svg" version="1.0" width="300.000000pt" height="300.000000pt" viewBox="0 0 300.000000 300.000000" preserveAspectRatio="xMidYMid meet">
  <defs/>
  <path fill="#000000" d="M90,48.5 C89.2,49.5 89,51.2 89.5,53.7 C90.1,56.8 91.9,73.6 92.1,77.5 C92.1,78 91.6,82.1 91,86.4 C89.8,94.9 87.5,99.5 83.7,100.5 C75.8,102.7 67,108 67,110.5 C67,111.3 67.8,112.4 68.9,112.9 C71.8,114.5 74.3,121.6 72.9,124.2 C72.1,125.8 72.1,127.2 73,130 C73.7,132.3 74,135.3 73.5,137.6 C73.2,139.8 72.7,151.4 72.4,163.5 C72.2,175.6 71.8,188.6 71.5,192.5 C71.2,196.3 70.8,202.9 70.6,207 C70.1,216.7 65.7,230.3 62.3,233 C60.9,234.1 58.2,235 56.4,235 C52.1,235 52.1,236.5 56.3,239 C60.4,241.5 61.6,241.5 65.7,238.7 C68.1,237.1 69.8,234.5 72,229.4 C74.7,222.9 75.4,219.3 77.7,200.7 L78.3,195.9 L82.5,196.6 C85.4,197 87.7,196.7 89.6,195.7 C91.2,194.9 94.8,193.9 97.5,193.5 C100.3,193.1 103.3,192.4 104.3,191.8 C106.8,190.5 110.6,191.5 111.5,193.7 C115.1,202.7 117,236.4 114.1,239.3 C112.3,241.1 105.1,235.3 100.8,228.4 C96.8,222 95.7,221.1 94.4,223.1 C93.8,224.1 94.2,225.2 97.8,232.8 C100.1,237.6 111.2,247 115.3,247.7 L118.7,248.2 L120.3,246 L121.8,243.8 L121.3,227.2 C121,218 120.8,206.1 120.8,200.7 L120.8,190.9 L122.5,189 C124.8,186.5 126.5,186.5 129,189 C131.7,191.7 132.7,191.5 135.7,188 L138.2,185 L143.5,185 C149.5,185 153.8,182.5 152.7,179.7 L152.1,178 L144.8,178 C140.1,178 136.7,178.5 135.5,179.4 C133.7,180.6 128.8,181.5 119.5,182.3 L116.5,182.5 L116.2,176.1 L115.9,169.7 L118,167.5 C119.2,166.2 122.5,164.5 125.5,163.5 C130.8,161.9 132.4,160.3 131.4,157.6 C130.4,155 127.3,155.3 120.4,158.6 C112.5,162.3 111.1,162.6 108.4,160.5 C104.8,157.7 101.1,159.5 102.6,163.4 C103.6,165.9 99.5,168.6 92.9,169.9 C83,171.9 82.9,172 83.2,174.3 L83.5,176.5 L88.5,176.8 C93.1,177.1 97.9,176.2 103.7,173.9 C107.9,172.3 110.9,180 107.4,183.4 C106.3,184.5 103.9,185 99.1,185 C95.4,185 92,185.4 91.4,185.9 C90.4,186.8 80.8,190 79.1,190 C76.7,190 78.6,135.5 81.2,130.7 C81.8,129.4 82.7,129.1 83.8,129.6 C84.7,130 86.8,130.3 88.4,130.2 C92.2,130 94,131.6 94,135 C94,136.5 94.9,139.8 96,142.4 L98.1,147 L103.1,147 C105.8,147 109.6,146.3 111.5,145.6 L115,144.1 L118.6,145.6 C121.3,146.7 122.5,146.8 123.6,145.9 L124.9,144.8 L123.5,142 C121.6,138.3 119.5,137.7 111,138.6 L104,139.3 L103,136.6 C100.5,130 102.5,126.4 108.7,126.2 C115.7,125.9 118.5,124.6 118.8,121.7 C119.2,118.7 117.3,117.9 110.5,118.3 L106.5,118.5 L106.8,112.4 C107.1,107.7 106.8,105.9 105.5,104.6 C103.3,102.5 102.5,103.1 99.3,109.3 C95.6,116.6 92.2,120.9 88.6,122.5 C86.9,123.3 84.7,124.5 83.7,125.2 L81.9,126.5 L80.4,124.6 C78.2,121.6 78.5,110.8 80.8,108.7 C81.8,107.7 83,107 83.4,107 C83.8,107 86.1,106.1 88.4,105 C93.2,102.9 99.1,101.6 115.5,99.4 C130.1,97.4 131.1,97.5 133.9,100.7 L136.2,103.4 L135.6,107.8 C134.9,112.9 132.6,118.4 129.3,122.3 C126.6,125.6 126.4,126.8 128.6,127.7 C130.7,128.5 137.2,122 140.4,115.8 C144.8,107.3 143.3,96.8 137.2,94.1 C134.4,92.7 121.7,92.7 108.5,94 L98.5,95 L97.3,93.4 C94.9,90.1 98.8,76.3 102.4,75.5 C103.6,75.3 105.9,74.8 107.5,74.5 C109.2,74.1 112.4,73.7 114.8,73.5 C121,73.1 123.7,72.2 124.3,70.5 C125.2,68.4 122.1,65.7 119.6,66.5 C118.4,66.8 114.8,67.5 111.5,68 C108.2,68.5 104.5,69.2 103.3,69.5 C101.9,70 100.5,69.5 99.1,68.1 L97,66 L97,58.2 L97,50.3 L95.2,48.7 C92.9,46.6 91.6,46.6 90,48.5 Z"/>
  <path fill="#000000" d="M167.6,58.5 C166.7,59.9 165.7,62.5 165.4,64.3 C165,66 163.9,70.2 162.8,73.5 C159.6,83.4 157,93.9 155.5,103.6 C154.7,108.6 153.5,114.1 152.9,115.8 C152.2,118 152.2,119.4 153,120.9 C155.3,125.2 157.2,123 159.4,113.5 C163.2,97.2 166.1,91 170,91 C170.9,91 175.7,89.3 180.6,87.2 C188.7,83.7 194.6,82.3 209.3,80.5 C213.1,80 214.6,80.2 216.1,81.6 C220,85.1 217.5,99.8 211.4,108.7 C207.7,114.1 206,115.3 203.5,114.4 C201.5,113.6 199,115.7 199,118.1 C199,121.2 201.1,124.8 203.4,125.4 C207.8,126.6 221.1,108.8 223.2,98.8 C224.6,92 224.6,79.9 223.1,77.1 L221.9,75 L211.1,75 L200.3,75 L188.7,78 C182.3,79.6 176.1,81.4 175.1,82 C172.3,83.5 169.3,83.2 168.6,81.5 C168.3,80.6 169.5,75.5 171.4,70.1 C174.9,59.8 174.8,56 171.1,56 C170.1,56 168.5,57.1 167.6,58.5 Z"/>
  <path fill="#000000" d="M178,97.5 C177.3,98.3 176.5,104.3 176,111.4 C175.6,118.3 174.9,124.4 174.5,125 C174.1,125.7 173.2,130.3 172.4,135.3 C171.7,140.4 170.6,147.2 170.1,150.5 C169.5,153.8 169,158.1 169,160 C169,161.9 168.1,165.3 167,167.5 C165.9,169.7 165.1,172.2 165,173.1 C165,173.9 164.3,175.5 163.5,176.6 C162.7,177.6 162,179.7 162,181.1 C162,184.1 159.5,190.6 158.1,191.4 C157.6,191.7 156.9,193.2 156.5,194.7 C155.1,200.3 145.6,217.9 143.3,219.1 C139.3,221.3 139.1,226 143,226 C146.7,226 151.5,220.3 156.7,209.8 C159.5,204.1 162.1,198.4 162.5,197 C162.9,195.7 164.1,193.4 165,192 C166,190.6 167.3,187.2 168,184.5 C168.7,181.7 169.8,178.1 170.6,176.3 C171.4,174.6 172,172.8 172,172.3 C172,171.1 175.3,168 176.6,168 C177.1,168 178.5,169.5 179.8,171.3 C185.2,179.2 207.9,200.7 211.7,201.6 C213.2,201.9 215.4,202.8 216.5,203.4 C217.6,204.1 221.7,205.2 225.5,206 C229.4,206.7 233.9,207.9 235.7,208.7 C240,210.4 243.5,210.4 245.1,208.4 C247,206 245,203.6 240.4,202.8 C238.3,202.5 233.1,201.2 229,200 C224.9,198.8 219.8,197.4 217.6,196.9 C210.4,195.1 191,177.2 182.5,164.5 C177.6,157.2 175.5,150 177,145.6 C177.5,143.9 178.5,139.3 179.1,135.5 C179.7,131.6 180.6,126.5 181,124 C181.5,121.5 181.9,116.3 181.9,112.3 C182,108.4 182.5,104.8 183,104.5 C184.4,103.6 184.3,98.7 182.8,97.2 C181.2,95.6 179.5,95.7 178,97.5 Z"/>
</svg>

